<?xml version="1.0" standalone="no"?>
<!DOCTYPE svg PUBLIC "-//W3C//DTD SVG 20010904//EN"
 "http://www.w3.org/TR/2001/REC-SVG-20010904/DTD/svg10.dtd">
<svg version="1.0" xmlns="http://www.w3.org/2000/svg"
 width="820.000000pt" height="820.000000pt" viewBox="0 0 820.000000 820.000000"
 preserveAspectRatio="xMidYMid meet">
<metadata>
Created by potrace 1.11, written by Peter Selinger 2001-2013
</metadata>
<g transform="translate(0.000000,820.000000) scale(0.100000,-0.100000)"
fill="#000000" stroke="none">
<path d="M2245 7715 c-434 -73 -857 -145 -940 -159 -82 -14 -341 -57 -575 -96
-234 -38 -436 -72 -450 -74 -14 -3 -61 -10 -105 -16 -116 -17 -125 -25 -125
-111 0 -38 7 -102 15 -142 8 -40 17 -85 20 -102 3 -16 14 -81 26 -144 11 -62
24 -124 29 -136 5 -13 7 -25 4 -28 -3 -2 4 -49 15 -103 11 -55 27 -142 36
-194 9 -52 23 -126 31 -165 8 -38 17 -90 20 -115 3 -25 8 -52 11 -60 3 -8 7
-28 9 -45 4 -32 41 -232 51 -275 3 -14 7 -38 9 -55 1 -16 10 -66 19 -110 9
-44 18 -93 21 -110 3 -16 12 -66 20 -110 9 -44 18 -93 21 -110 2 -16 11 -66
19 -110 8 -44 17 -100 20 -125 3 -25 10 -50 15 -56 5 -6 7 -13 4 -16 -3 -2 0
-27 5 -54 6 -27 14 -69 17 -94 3 -25 9 -47 14 -48 5 -2 7 -7 4 -12 -3 -4 -1
-30 4 -56 5 -27 12 -69 16 -94 4 -24 9 -49 13 -54 3 -6 7 -24 9 -41 3 -33 12
-84 49 -280 13 -71 26 -141 28 -155 3 -14 7 -36 9 -50 3 -14 8 -47 12 -75 3
-27 10 -66 15 -85 9 -33 13 -58 26 -140 3 -19 14 -78 25 -130 10 -52 21 -115
24 -139 3 -24 8 -48 11 -53 3 -4 7 -30 10 -56 2 -26 13 -90 23 -142 35 -174
40 -198 46 -235 3 -16 8 -41 10 -55 3 -14 8 -47 11 -75 3 -27 9 -52 15 -53 5
-2 7 -7 4 -12 -3 -4 0 -32 6 -61 10 -52 23 -127 34 -199 3 -19 8 -42 10 -50 3
-8 7 -33 10 -55 3 -22 12 -69 20 -105 7 -36 16 -83 19 -105 6 -37 18 -103 32
-165 3 -14 7 -36 8 -50 9 -61 18 -118 27 -155 5 -22 11 -53 14 -70 3 -25 27
-152 40 -215 2 -8 4 -23 4 -33 1 -21 35 -37 171 -77 58 -18 130 -40 160 -50
30 -11 96 -31 145 -46 50 -15 122 -37 162 -50 40 -13 83 -25 97 -26 15 -1 26
-6 26 -9 0 -4 15 -11 33 -14 17 -4 86 -25 152 -46 66 -22 129 -41 140 -43 11
-3 40 -12 64 -20 24 -9 53 -18 65 -21 12 -2 40 -11 64 -20 24 -8 51 -17 60
-19 9 -1 24 -6 32 -10 12 -5 96 -31 165 -50 6 -2 17 -6 25 -9 27 -10 120 -39
138 -42 9 -2 18 -4 20 -5 1 -2 5 -3 10 -4 4 -1 30 -9 57 -18 63 -21 198 -62
205 -63 3 0 11 -4 18 -9 7 -4 16 -5 19 -2 3 3 11 2 17 -3 6 -4 40 -18 76 -29
36 -11 131 -41 211 -66 80 -26 155 -48 165 -51 10 -2 46 -13 79 -23 33 -11
121 -39 195 -62 74 -23 146 -45 160 -50 14 -5 72 -23 130 -40 58 -18 159 -49
225 -70 101 -33 135 -43 185 -55 3 -1 13 -5 22 -9 9 -4 22 -8 30 -10 7 -1 19
-5 27 -10 7 -5 44 -11 80 -14 65 -4 70 -3 187 54 65 32 121 61 124 64 3 3 34
19 70 36 36 17 139 68 230 113 91 45 237 118 325 162 88 44 169 85 180 91 11
6 298 150 637 320 614 307 644 324 622 359 -4 7 -3 9 3 6 6 -4 13 12 16 41 4
26 8 58 11 72 2 14 7 43 11 65 3 22 8 47 11 56 2 9 7 32 9 50 3 19 7 45 11 59
10 44 22 104 28 145 4 22 15 83 25 135 25 126 49 257 56 300 2 19 11 67 19
105 8 39 17 87 20 109 4 21 8 41 10 45 2 3 7 31 10 61 4 30 11 72 17 92 5 20
9 40 8 45 -1 4 0 15 4 23 5 14 28 137 32 170 1 8 7 40 13 70 7 30 14 69 16 85
2 17 6 37 9 45 5 14 31 160 42 235 2 17 11 64 20 105 24 121 36 183 39 210 1
14 5 30 8 35 3 6 9 35 12 65 4 30 11 71 16 90 4 19 11 53 14 75 3 22 8 51 11
65 3 14 12 61 20 105 8 44 17 91 20 105 3 14 8 43 10 65 2 22 5 41 6 43 1 1 2
5 3 10 14 62 20 91 22 112 1 14 3 25 4 25 2 0 9 32 14 70 2 17 7 37 10 45 2 8
7 33 10 55 3 22 14 84 26 138 11 54 22 117 23 140 1 23 5 44 9 47 4 3 9 28 12
55 3 28 5 50 6 50 1 0 4 11 6 25 3 14 13 68 23 120 11 52 19 102 19 110 1 8
15 82 32 164 17 82 28 151 25 154 -3 3 -1 10 4 16 5 6 12 31 15 56 3 25 12 77
20 115 7 39 16 86 19 105 3 19 14 80 26 135 11 55 21 118 23 140 2 22 6 42 9
45 4 3 9 25 12 50 4 25 16 95 27 155 12 61 23 121 25 135 1 14 5 32 8 40 3 8
10 44 16 80 14 85 20 115 32 175 6 28 13 91 16 140 7 116 7 116 -122 129 -33
3 -197 20 -365 36 -334 33 -376 38 -435 45 -22 2 -71 7 -110 10 -70 6 -133 12
-191 20 -17 2 -105 11 -195 20 -90 8 -180 17 -199 20 -19 3 -192 21 -385 40
-192 20 -460 47 -595 61 -135 13 -312 31 -395 39 -82 8 -213 21 -290 30 -290
31 -334 36 -480 50 -82 8 -260 26 -395 40 -135 13 -357 36 -493 50 -384 39
-345 42 -1252 -110z"/>
</g>
</svg>
